<svg version="1.1" id="_x32_" xmlns="http://www.w3.org/2000/svg" x="0" y="0" width="512" height="512" viewBox="0 0 512 512" style="width:32px;height:32px;opacity:1" xml:space="preserve" xmls="http://www.w3.org/2000/svg"><style>.st0{fill:#4b4b4b}</style><path class="st0" d="M403.469 395.031c-129.203 0-233.938-104.75-233.938-233.953 0-62.438 24.5-119.125 64.375-161.078C109.313 17.953 13.563 125.094 13.563 254.656 13.563 396.781 128.781 512 270.906 512c98.688 0 184.359-55.578 227.531-137.125-29.031 12.906-61.14 20.156-94.968 20.156z" style="fill:#4b4b4b"/><path class="st0" d="M349.641 179.328a4.407 4.407 0 0 1 1.266 3.922l-8.563 49.938a4.466 4.466 0 0 0 1.766 4.344 4.433 4.433 0 0 0 4.656.328l44.859-23.578a4.348 4.348 0 0 1 4.109 0l44.859 23.578a4.436 4.436 0 0 0 4.656-.328 4.457 4.457 0 0 0 1.75-4.344l-8.563-49.938a4.407 4.407 0 0 1 1.266-3.922L478 143.969a4.437 4.437 0 0 0 1.125-4.531c-.531-1.594-1.906-2.781-3.578-3.016l-50.141-7.297a4.459 4.459 0 0 1-3.344-2.406L399.64 81.266c-.734-1.516-2.281-2.453-3.969-2.453-1.672 0-3.219.938-3.953 2.453l-22.438 45.453a4.409 4.409 0 0 1-3.328 2.406l-50.141 7.297c-1.672.234-3.063 1.422-3.578 3.016s-.078 3.359 1.125 4.531l36.283 35.359z" style="fill:#4b4b4b"/></svg>